<?xml version="1.0" encoding="utf-8"?>
<!-- Uploaded to: SVG Repo, www.svgrepo.com, Generator: SVG Repo Mixer Tools -->
<svg fill="#000000" width="800px" height="800px" viewBox="0 0 32 32" version="1.1" xmlns="http://www.w3.org/2000/svg">
<title>diamonds-card</title>
<path d="M28.565 7.822l-11.588-6.69c-1.509-0.871-3.438-0.354-4.31 1.155l-10.257 17.765c-0.871 1.509-0.354 3.438 1.155 4.31l11.588 6.69c1.509 0.871 3.438 0.354 4.31-1.155l10.257-17.765c0.871-1.509 0.354-3.438-1.155-4.31zM14.771 3.77c0.382-0.661 1.227-0.888 1.888-0.506s0.888 1.227 0.506 1.888c-0.382 0.661-1.227 0.888-1.888 0.506s-0.888-1.227-0.506-1.888zM20.501 12.853c0 0 0 0 0 0l0.792 5.053c0 0 0 0-0 0l0.082 0.525-8.141 3.072-1.347-8.596 8.141-3.074 0.473 3.019zM17.291 28.533c-0.382 0.661-1.227 0.888-1.888 0.506s-0.888-1.227-0.506-1.888c0.382-0.661 1.227-0.888 1.888-0.506s0.888 1.227 0.506 1.888z"></path>
</svg>